<!DOCTYPE svg PUBLIC "-//W3C//DTD SVG 1.1//EN" "http://www.w3.org/Graphics/SVG/1.1/DTD/svg11.dtd">
<!-- Uploaded to: SVG Repo, www.svgrepo.com, Transformed by: SVG Repo Mixer Tools -->
<svg version="1.1" id="Layer_1" xmlns="http://www.w3.org/2000/svg" xmlns:xlink="http://www.w3.org/1999/xlink" viewBox="0 0 512 512" xml:space="preserve" width="800px" height="800px" fill="#000000">
<g id="SVGRepo_bgCarrier" stroke-width="0"/>
<g id="SVGRepo_tracerCarrier" stroke-linecap="round" stroke-linejoin="round"/>
<g id="SVGRepo_iconCarrier"> <path style="fill:#000000;" d="M343.628,7.91c-4.05,44.863-41.711,80.029-87.628,80.029S172.42,52.772,168.372,7.91h-48.421v496.18 h272.099V7.91H343.628z"/> <rect x="119.945" y="159.969" style="fill:#000000;" width="272.099" height="344.12"/> <rect x="159.969" y="199.982" style="fill:#FFFFFF;" width="192.072" height="136.049"/> <rect x="288.014" y="199.982" style="fill:#FFFFFF;" width="64.023" height="136.049"/> <g> <path style="fill:#1D1D1B;" d="M336.401,0l-0.65,7.199c-1.79,19.831-10.878,38.2-25.59,51.726 c-14.801,13.609-34.036,21.103-54.16,21.103s-39.359-7.494-54.16-21.103c-14.712-13.527-23.8-31.897-25.59-51.726L175.6,0h-63.559 v512h287.918V0H336.401z M127.861,496.18V167.874h8.097v-15.82h-8.097V15.82h33.558c3.505,20.977,13.894,40.207,29.714,54.751 c17.73,16.301,40.766,25.278,64.868,25.278c24.102,0,47.138-8.977,64.868-25.278c15.819-14.544,26.208-33.774,29.714-54.751h33.558 v136.235h-8.097v15.82h8.097v328.305H127.861V496.18z"/> <rect x="151.964" y="152.059" style="fill:#1D1D1B;" width="16.006" height="15.82"/> <rect x="183.973" y="152.059" style="fill:#1D1D1B;" width="16.005" height="15.82"/> <rect x="215.981" y="152.059" style="fill:#1D1D1B;" width="16.006" height="15.82"/> <rect x="248" y="152.059" style="fill:#1D1D1B;" width="16.005" height="15.82"/> <rect x="280.009" y="152.059" style="fill:#1D1D1B;" width="16.006" height="15.82"/> <rect x="312.018" y="152.059" style="fill:#1D1D1B;" width="16.006" height="15.82"/> <rect x="344.037" y="152.059" style="fill:#1D1D1B;" width="16.006" height="15.82"/> <path style="fill:#1D1D1B;" d="M359.945,343.939H152.056V192.07h207.889V343.939z M167.876,328.119h176.249V207.89H167.876V328.119 z"/> <rect x="183.973" y="360.13" style="fill:#1D1D1B;" width="144.054" height="15.82"/> </g> <rect x="183.973" y="392.138" style="fill:#FFFFFF;" width="144.054" height="15.82"/> <rect x="183.973" y="424.157" style="fill:#1D1D1B;" width="56.023" height="15.82"/> <g> <rect x="183.973" y="456.166" style="fill:#FFFFFF;" width="24.009" height="15.82"/> <rect x="223.986" y="456.166" style="fill:#FFFFFF;" width="24.009" height="15.82"/> <rect x="263.999" y="456.166" style="fill:#FFFFFF;" width="24.009" height="15.82"/> <rect x="304.013" y="456.166" style="fill:#FFFFFF;" width="24.009" height="15.82"/> </g> </g>
</svg>